<svg width="48" height="48" viewBox="0 0 48 48" fill="none" xmlns="http://www.w3.org/2000/svg">
<g id="Inbox">
<path id="Vector" d="M41.4939 20.9119L41.4845 20.8744L36.2252 7.51035C35.9908 6.75566 35.2923 6.23535 34.5002 6.23535H13.1814C12.3845 6.23535 11.6767 6.76504 11.4517 7.5291L6.53453 20.7572L6.52047 20.79L6.51109 20.8275C6.45016 21.0572 6.43141 21.2916 6.46422 21.5213C6.45953 21.5963 6.45484 21.6713 6.45484 21.7463V38.8979C6.45608 39.6533 6.75675 40.3775 7.29096 40.9117C7.82517 41.4459 8.54936 41.7466 9.30484 41.7478H38.7048C40.2752 41.7478 41.5548 40.4682 41.5595 38.8979V21.7463C41.5595 21.6854 41.5595 21.6244 41.5548 21.5729C41.5736 21.3432 41.5548 21.1228 41.4939 20.9119ZM27.6283 18.8963L27.6142 19.6322C27.5767 21.7369 26.1236 23.1525 24.0002 23.1525C22.9642 23.1525 22.0736 22.8197 21.4314 22.1869C20.7892 21.5541 20.4377 20.6728 20.4189 19.6322L20.4048 18.8963H10.758L14.4845 9.83535H33.197L37.0267 18.8963H27.6283ZM10.0502 22.4963H17.4236C18.5627 25.1729 20.9861 26.7525 24.0048 26.7525C25.5845 26.7525 27.0517 26.3119 28.2377 25.4775C29.2783 24.7463 30.0892 23.7244 30.6142 22.4963H37.9502V38.1478H10.0502V22.4963Z" fill="#01A19A"/>
</g>
</svg>
