<svg width="18" height="18" viewBox="0 0 18 18" fill="none" xmlns="http://www.w3.org/2000/svg">
<g id="Swap">
<path id="Vector" d="M15.7479 10.6078H1.76775C1.67935 10.6078 1.60703 10.6801 1.60703 10.7685V11.9738C1.60703 12.0622 1.67935 12.1346 1.76775 12.1346H13.9258L11.0269 15.8109C10.9445 15.9154 11.0189 16.0721 11.1535 16.0721H12.6099C12.7084 16.0721 12.8008 16.0279 12.8631 15.9495L16.2541 11.6484C16.5856 11.2265 16.2863 10.6078 15.7479 10.6078ZM16.232 5.8667H4.074L6.97288 2.19036C7.05525 2.0859 6.98092 1.9292 6.84632 1.9292H5.38984C5.29141 1.9292 5.199 1.9734 5.13672 2.05174L1.74565 6.35286C1.41417 6.77474 1.7135 7.39349 2.24989 7.39349H16.232C16.3204 7.39349 16.3927 7.32116 16.3927 7.23277V6.02741C16.3927 5.93902 16.3204 5.8667 16.232 5.8667Z" fill="black" fill-opacity="0.85"/>
</g>
</svg>
